<?xml version="1.0" standalone="no"?>
<!DOCTYPE svg PUBLIC "-//W3C//DTD SVG 20010904//EN"
 "http://www.w3.org/TR/2001/REC-SVG-20010904/DTD/svg10.dtd">
<svg version="1.0" xmlns="http://www.w3.org/2000/svg"
 width="1290.000000pt" height="405.000000pt" viewBox="0 0 1290.000000 405.000000"
 preserveAspectRatio="xMidYMid meet">
<metadata>
Created by potrace 1.16, written by Peter Selinger 2001-2019
</metadata>
<g transform="translate(0.000000,405.000000) scale(0.100000,-0.100000)"
fill="#000000" stroke="none">
<path d="M1420 3043 l0 -99 -261 -444 c-144 -245 -266 -451 -271 -457 -8 -10
60 -13 338 -13 192 0 407 3 477 7 120 6 131 8 179 37 42 26 62 50 123 146 89
143 356 596 418 711 62 113 62 155 3 187 -28 15 -81 17 -518 20 l-488 3 0 -98z
m652 -159 c4 -3 -75 -140 -173 -305 l-180 -299 -185 0 c-102 0 -183 3 -181 8
12 20 331 560 343 580 14 21 19 22 193 22 98 0 180 -3 183 -6z"/>
<path d="M2860 3044 l0 -96 -230 -393 c-126 -216 -245 -420 -265 -452 -19 -32
-35 -61 -35 -65 0 -5 224 -8 498 -8 l497 0 68 118 67 117 -67 6 c-38 4 -186 7
-330 8 -145 0 -263 4 -263 8 0 4 19 40 42 80 l42 73 195 0 196 0 65 113 c36
61 66 118 68 124 3 10 -38 13 -183 13 -216 0 -202 -13 -124 117 l50 83 338 0
338 0 69 117 c38 64 71 121 72 125 2 4 -246 8 -552 8 l-556 0 0 -96z"/>
<path d="M4250 3044 l0 -97 -265 -453 c-146 -250 -265 -456 -265 -459 0 -3
224 -5 498 -5 l497 0 68 117 c37 64 66 118 64 119 -2 2 -151 7 -331 11 -291 6
-326 8 -321 22 3 9 114 199 246 422 131 224 239 409 239 413 0 3 -97 6 -215 6
l-215 0 0 -96z"/>
<path d="M5640 3041 l0 -98 -245 -417 c-135 -230 -257 -435 -270 -457 l-25
-39 164 0 164 0 322 548 c178 301 325 550 327 555 2 4 -95 7 -216 7 l-221 0 0
-99z"/>
<path d="M6480 3040 l0 -100 -253 -433 c-140 -237 -259 -442 -266 -455 l-12
-23 162 3 163 3 117 200 116 200 103 0 103 0 34 -120 c19 -66 45 -157 59 -202
l25 -83 147 0 c81 0 152 4 158 8 7 5 -6 66 -42 192 -29 102 -52 190 -50 196 2
5 32 18 66 27 75 21 121 51 159 103 47 64 251 426 261 463 7 24 6 42 -3 60
-26 55 -30 56 -559 59 l-488 3 0 -101z m660 -156 c0 -3 -24 -48 -52 -100 l-53
-94 -188 0 -188 0 12 23 c23 45 83 143 97 160 13 15 36 17 194 17 98 0 178 -3
178 -6z"/>
<path d="M7930 3048 l0 -91 -88 -151 c-49 -83 -168 -287 -265 -453 -98 -166
-177 -307 -177 -313 0 -7 49 -10 156 -8 l157 3 318 540 c176 297 319 546 319
553 0 9 -49 12 -210 12 l-210 0 0 -92z"/>
<path d="M8925 3131 c-111 -14 -193 -70 -264 -181 -74 -115 -286 -481 -357
-616 -58 -110 -64 -126 -64 -181 0 -56 3 -64 30 -86 25 -21 44 -26 123 -32
141 -11 735 0 779 14 60 19 131 83 185 167 64 100 316 541 399 700 73 137 79
174 37 201 -25 16 -62 18 -418 20 -214 1 -417 -2 -450 -6z m501 -248 c-4 -10
-84 -152 -179 -315 l-172 -298 -243 0 c-140 0 -242 4 -240 9 2 5 79 147 172
315 l170 306 249 0 c233 0 249 -1 243 -17z"/>
<path d="M10310 3042 l0 -98 -264 -450 c-145 -247 -262 -452 -259 -456 2 -5
73 -8 158 -8 l153 0 123 213 c279 486 296 513 303 481 5 -24 86 -672 86 -688
0 -3 75 -6 168 -6 l167 0 203 353 c111 193 253 441 316 549 87 151 110 198 99
202 -8 3 -77 6 -153 6 l-139 0 -57 -97 c-333 -567 -363 -617 -371 -610 -3 3
-24 159 -47 347 -31 249 -46 344 -57 351 -8 5 -107 9 -221 9 l-208 0 0 -98z"/>
<path d="M830 1815 l0 -45 5355 0 5355 0 0 45 0 45 -5355 0 -5355 0 0 -45z"/>
<path d="M3412 1504 c-72 -19 -104 -37 -141 -79 -47 -54 -39 -119 21 -155 45
-27 105 -43 297 -80 193 -37 261 -60 296 -101 52 -62 25 -129 -67 -170 -46
-20 -73 -24 -200 -27 -176 -5 -255 13 -325 73 -47 40 -70 47 -53 14 19 -34 99
-77 177 -95 57 -12 107 -15 216 -12 160 6 217 21 274 74 29 27 33 38 33 81 0
93 -58 124 -342 182 -202 41 -292 70 -308 102 -6 10 -10 34 -10 54 0 83 125
139 310 139 124 0 194 -18 268 -69 52 -36 79 -34 39 2 -32 30 -95 59 -155 72
-73 15 -266 13 -330 -5z"/>
<path d="M4135 1510 c-4 -7 63 -10 194 -10 l201 0 0 -315 c0 -173 4 -315 9
-315 16 0 21 91 21 361 l0 269 196 0 c127 0 193 3 189 10 -4 6 -150 10 -405
10 -255 0 -401 -4 -405 -10z"/>
<path d="M5194 1507 c-3 -8 -4 -116 -2 -239 3 -252 7 -265 80 -318 68 -49 156
-72 298 -77 70 -3 152 0 185 6 89 16 183 67 219 119 l30 42 4 215 c3 118 2
226 -2 240 -15 61 -24 2 -28 -207 -4 -136 -10 -235 -17 -253 -39 -98 -166
-148 -370 -146 -121 0 -205 19 -270 59 -91 56 -100 87 -101 364 0 121 -4 199
-10 203 -6 3 -13 0 -16 -8z"/>
<path d="M6330 1194 l0 -327 268 6 c360 8 491 36 608 132 113 93 117 278 8
375 -117 102 -301 140 -696 140 l-188 0 0 -326z m536 295 c171 -24 307 -88
362 -171 24 -37 27 -51 27 -122 0 -75 -2 -85 -32 -127 -60 -86 -192 -147 -364
-169 -46 -5 -177 -10 -291 -10 l-208 0 0 305 0 305 214 0 c118 0 250 -5 292
-11z"/>
<path d="M7540 1195 c0 -318 0 -325 20 -325 20 0 20 7 20 325 0 318 0 325 -20
325 -20 0 -20 -7 -20 -325z"/>
<path d="M8175 1504 c-82 -16 -216 -78 -269 -124 -49 -44 -77 -101 -83 -171
-13 -139 108 -257 322 -315 98 -27 380 -27 475 -1 155 43 268 122 310 219 71
164 -71 331 -329 388 -104 24 -319 25 -426 4z m432 -24 c232 -60 340 -192 293
-362 -23 -83 -148 -170 -299 -209 -107 -28 -324 -28 -432 0 -144 37 -250 105
-288 185 -28 57 -28 145 0 203 50 104 205 182 409 207 69 8 240 -5 317 -24z"/>
</g>
</svg>
