<?xml version="1.0" standalone="no"?>
<!DOCTYPE svg PUBLIC "-//W3C//DTD SVG 20010904//EN"
 "http://www.w3.org/TR/2001/REC-SVG-20010904/DTD/svg10.dtd">
<svg version="1.0" xmlns="http://www.w3.org/2000/svg"
 width="871.000000pt" height="180.000000pt" viewBox="0 0 871.000000 180.000000"
 preserveAspectRatio="xMidYMid meet">
<metadata>
Created by potrace 1.16, written by Peter Selinger 2001-2019
</metadata>
<g transform="translate(0.000000,180.000000) scale(0.100000,-0.100000)"
fill="#000000" stroke="none">
<path d="M255 1257 c-3 -6 -4 -170 -3 -362 l3 -350 90 0 90 0 5 130 5 130 250
5 c271 5 298 11 322 62 18 36 27 160 19 251 -14 140 -38 147 -480 147 -229 0
-298 -3 -301 -13z m579 -160 c32 -21 36 -73 7 -108 -19 -24 -22 -24 -208 -24
l-188 0 -3 69 c-2 48 1 72 10 78 7 5 90 7 184 6 141 -3 176 -7 198 -21z"/>
<path d="M1273 1264 c-10 -4 -13 -86 -13 -360 l0 -354 23 -5 c12 -3 54 -5 92
-3 l70 3 6 121 c3 66 9 125 13 132 10 17 59 15 103 -3 19 -8 91 -69 158 -135
l122 -120 116 0 c115 0 147 4 147 21 0 11 -64 70 -167 153 -46 37 -83 71 -83
75 0 12 26 21 57 21 42 0 104 22 114 41 5 10 9 91 10 180 0 183 -5 200 -68
220 -39 13 -674 24 -700 13z m577 -169 c24 -22 27 -81 5 -112 -21 -31 -94 -43
-250 -43 -155 0 -155 0 -155 94 0 88 2 89 206 84 151 -4 176 -7 194 -23z"/>
<path d="M2375 1258 c-3 -7 -4 -171 -3 -363 l3 -350 380 0 380 0 0 70 0 70
-277 3 c-318 3 -299 -4 -289 97 l6 60 155 5 155 5 3 49 c6 99 13 95 -161 98
l-152 3 -3 49 c-2 32 1 52 10 57 7 5 131 9 276 9 l263 0 -3 73 -3 72 -368 3
c-289 2 -369 0 -372 -10z"/>
<path d="M3530 1261 c-96 -14 -111 -43 -113 -215 -2 -125 5 -144 67 -190 26
-20 45 -21 279 -26 l252 -5 5 -47 c3 -26 2 -57 -2 -68 -8 -21 -11 -22 -216
-18 -219 3 -242 8 -242 49 0 16 -8 19 -52 19 -29 0 -70 -5 -90 -11 -32 -8 -38
-14 -38 -38 0 -40 29 -123 52 -146 18 -19 32 -20 356 -20 390 0 380 -2 407 87
32 110 11 301 -38 333 -27 17 -238 35 -424 35 -67 0 -128 3 -137 6 -12 4 -16
20 -16 54 0 60 -1 60 195 59 191 -1 239 -7 243 -34 9 -48 24 -50 130 -23 35 9
42 15 43 37 2 51 -2 76 -19 109 -28 54 -75 62 -356 61 -133 -1 -261 -5 -286
-8z"/>
<path d="M4531 1256 c-8 -9 -11 -111 -9 -362 l3 -349 380 0 380 0 0 70 0 70
-280 5 -280 5 0 75 0 75 158 3 157 3 0 74 0 75 -160 0 -161 0 3 58 3 57 273 3
273 2 -3 73 -3 72 -361 3 c-298 2 -363 0 -373 -12z"/>
<path d="M5585 1248 c-3 -13 -4 -176 -3 -363 l3 -340 80 0 80 0 6 75 c4 41 7
131 8 200 1 69 5 131 10 139 7 11 37 -9 133 -90 382 -325 379 -323 473 -323
l70 -1 0 360 0 360 -79 3 c-57 2 -82 -1 -87 -10 -5 -7 -9 -106 -9 -220 0 -163
-3 -208 -13 -208 -7 0 -51 33 -98 73 -384 327 -440 367 -523 367 -39 0 -46 -3
-51 -22z"/>
<path d="M6607 1263 c-4 -3 -7 -37 -7 -75 l0 -68 148 0 c103 0 153 -4 165 -12
15 -12 17 -44 19 -288 l3 -275 80 -3 c137 -5 124 -36 125 285 0 208 3 279 13
285 6 4 79 8 160 8 l148 0 -3 73 -3 72 -421 3 c-231 1 -424 -1 -427 -5z"/>
<path d="M7731 1257 c-71 -19 -81 -42 -88 -190 -6 -125 -6 -127 21 -168 43
-65 63 -69 329 -69 168 0 236 -3 245 -12 7 -7 12 -33 12 -60 0 -37 -4 -50 -19
-58 -22 -11 -331 -14 -395 -3 -31 5 -41 12 -50 34 -5 16 -17 30 -26 31 -18 4
-128 -10 -141 -18 -15 -9 -10 -80 10 -126 32 -76 15 -73 385 -73 361 0 362 0
393 58 21 40 30 223 14 284 -26 94 -39 98 -371 109 -124 4 -231 11 -237 17
-21 16 -16 85 6 97 22 11 274 14 360 3 47 -5 55 -10 65 -34 13 -37 21 -39 87
-27 74 13 92 31 86 87 -6 50 -31 90 -73 111 -39 20 -545 26 -613 7z"/>
</g>
</svg>
